<?xml version="1.0" encoding="utf-8"?>
<!-- Generator: Adobe Illustrator 24.0.0, SVG Export Plug-In . SVG Version: 6.00 Build 0)  -->
<svg version="1.1" id="Layer_1" xmlns="http://www.w3.org/2000/svg" xmlns:xlink="http://www.w3.org/1999/xlink" x="0px" y="0px"
	 viewBox="0 0 25.4 25.4" style="enable-background:new 0 0 25.4 25.4;" xml:space="preserve">
<style type="text/css">
	.st0{fill:#303030;}
	.st1{fill:none;stroke:#303030;stroke-width:0.7;stroke-linecap:round;stroke-linejoin:round;stroke-miterlimit:10;}
	.st2{display:none;}
	.st3{display:inline;}
	.st4{fill-rule:evenodd;clip-rule:evenodd;fill:#333333;}
</style>
<g id="Padding__x26__Artboard">
</g>
<g id="Icons_2_">
	<g>
		<g>
			<g>
				<path class="st0" d="M12.7,25.3c-6.9,0-12.6-5.6-12.6-12.6S5.8,0.1,12.7,0.1s12.6,5.6,12.6,12.6S19.6,25.3,12.7,25.3z M12.7,0.8
					C6.1,0.8,0.8,6.2,0.8,12.7s5.3,11.9,11.9,11.9s11.9-5.3,11.9-11.9S19.3,0.8,12.7,0.8z"/>
			</g>
		</g>
		<g>
			<g>
				<path class="st0" d="M20.5,8.9h-3.3c-0.2,0-0.3-0.2-0.3-0.4s0.2-0.4,0.3-0.4h3.3c0.2,0,0.3,0.2,0.3,0.4S20.6,8.9,20.5,8.9z"/>
			</g>
			<g>
				<path class="st0" d="M8.3,8.9H4.9c-0.2,0-0.3-0.2-0.3-0.4s0.2-0.4,0.3-0.4h3.4c0.2,0,0.3,0.2,0.3,0.4S8.5,8.9,8.3,8.9z"/>
			</g>
			<g>
				<path class="st0" d="M12.7,20.9c-3.9,0-8.2-2.6-8.2-8.2c0-0.2,0.2-0.4,0.3-0.4h15.7c0.2,0,0.3,0.2,0.3,0.4
					C20.9,18.4,16.7,20.9,12.7,20.9z M5.2,13.1c0.2,4.9,4,7.1,7.5,7.1c3.5,0,7.3-2.2,7.5-7.1H5.2z"/>
			</g>
		</g>
	</g>
</g>
<g id="Icons_1_">
	<g>
		<g>
			<circle class="st1" cx="-42" cy="12.7" r="12.2"/>
		</g>
		<g>
			<polyline class="st1" points="-34.2,10.3 -37.3,8.5 -34.2,6.7 			"/>
			<polyline class="st1" points="-49.6,10.3 -46.5,8.5 -49.6,6.7 			"/>
			<path class="st1" d="M-34.2,12.7c0,10.5-15.7,10.5-15.7,0H-34.2z"/>
			<path class="st1" d="M-49,16.6c4-2,9.9-2,14-0.2"/>
		</g>
	</g>
</g>
<g>
	<g>
		<circle class="st1" cx="54.7" cy="-16.1" r="12.2"/>
	</g>
	<line class="st1" x1="59.6" y1="-21.5" x2="61.9" y2="-19.1"/>
	<path class="st1" d="M46.8-10.6c0-6.6,15.7-6.8,15.7,0"/>
	<line class="st1" x1="59.6" y1="-19.1" x2="61.9" y2="-21.5"/>
	<line class="st1" x1="47.1" y1="-21.5" x2="49.5" y2="-19.1"/>
	<line class="st1" x1="47.1" y1="-19.1" x2="49.5" y2="-21.5"/>
</g>
<g class="st2">
	<g class="st3">
		<path class="st0" d="M12.7,25.3c-6.9,0-12.6-5.6-12.6-12.6S5.8,0.1,12.7,0.1s12.6,5.6,12.6,12.6S19.6,25.3,12.7,25.3z M12.7,0.8
			C6.1,0.8,0.8,6.1,0.8,12.7s5.3,11.9,11.9,11.9s11.9-5.3,11.9-11.9S19.3,0.8,12.7,0.8z"/>
	</g>
	<g class="st3">
		<path class="st0" d="M12.7,22.2c-3.9,0-8.2-2.6-8.2-8.2c0-0.2,0.2-0.4,0.4-0.4h15.7c0.2,0,0.3,0.2,0.3,0.4
			C20.9,19.6,16.7,22.2,12.7,22.2z M5.2,14.3c0.2,4.9,4,7.1,7.5,7.1c3.5,0,7.3-2.2,7.5-7.1H5.2z"/>
	</g>
	<g class="st3">
		<g id="Frame_1_">
			<g>
				<g>
					<path class="st4" d="M23,7.8c0-0.6,0.3-0.8,0.8-0.8l0-1.6c0,0-2.5-0.8-4.9-0.8c-2.5,0-4.5,1.2-6.2,1.2c-1.6,0-3.7-1.2-6.2-1.2
						c-2.5,0-4.9,0.8-4.9,0.8l0,1.6c0.5,0,0.8,0.3,0.8,0.8c0,1.6,0.4,2.9,1.2,3.7c1.2,1.2,5.3,1.2,6.6,0c1.6-1.6,1.6-4.1,2.5-4.1
						c0.8,0,0.8,2.5,2.5,4.1c1.2,1.2,5.3,1.2,6.6,0C22.5,10.6,23,9.4,23,7.8z"/>
				</g>
			</g>
		</g>
	</g>
</g>
</svg>
