<?xml version="1.0" encoding="utf-8"?>
<!-- Generator: Adobe Illustrator 24.0.0, SVG Export Plug-In . SVG Version: 6.00 Build 0)  -->
<svg version="1.1" id="Layer_1" xmlns="http://www.w3.org/2000/svg" xmlns:xlink="http://www.w3.org/1999/xlink" x="0px" y="0px"
	 viewBox="0 0 25.4 25.4" style="enable-background:new 0 0 25.4 25.4;" xml:space="preserve">
<style type="text/css">
	.st0{display:none;}
	.st1{display:inline;}
	.st2{fill:#303030;}
	.st3{fill:none;stroke:#303030;stroke-width:0.7;stroke-linecap:round;stroke-linejoin:round;stroke-miterlimit:10;}
	.st4{fill-rule:evenodd;clip-rule:evenodd;fill:#333333;}
</style>
<g id="Icons_2_" class="st0">
	<g class="st1">
		<g>
			<g>
				<path class="st2" d="M12.7,25.3c-6.9,0-12.6-5.6-12.6-12.6S5.8,0.1,12.7,0.1s12.6,5.6,12.6,12.6S19.6,25.3,12.7,25.3z M12.7,0.8
					C6.1,0.8,0.8,6.2,0.8,12.7s5.3,11.9,11.9,11.9s11.9-5.3,11.9-11.9S19.3,0.8,12.7,0.8z"/>
			</g>
		</g>
		<g>
			<g>
				<path class="st2" d="M20.5,8.9h-3.3c-0.2,0-0.3-0.2-0.3-0.4s0.2-0.4,0.3-0.4h3.3c0.2,0,0.3,0.2,0.3,0.4S20.6,8.9,20.5,8.9z"/>
			</g>
			<g>
				<path class="st2" d="M8.3,8.9H4.9c-0.2,0-0.3-0.2-0.3-0.4s0.2-0.4,0.3-0.4h3.4c0.2,0,0.3,0.2,0.3,0.4S8.5,8.9,8.3,8.9z"/>
			</g>
			<g>
				<path class="st2" d="M12.7,20.9c-3.9,0-8.2-2.6-8.2-8.2c0-0.2,0.2-0.4,0.3-0.4h15.7c0.2,0,0.3,0.2,0.3,0.4
					C20.9,18.4,16.7,20.9,12.7,20.9z M5.2,13.1c0.2,4.9,4,7.1,7.5,7.1c3.5,0,7.3-2.2,7.5-7.1H5.2z"/>
			</g>
		</g>
	</g>
</g>
<g>
	<g>
		<g>
			<path class="st2" d="M12.7,25.3c-6.9,0-12.6-5.6-12.6-12.6c0-6.9,5.6-12.6,12.6-12.6s12.6,5.6,12.6,12.6
				C25.3,19.7,19.6,25.3,12.7,25.3z M12.7,0.8C6.1,0.8,0.8,6.2,0.8,12.7c0,6.6,5.3,11.9,11.9,11.9s11.9-5.3,11.9-11.9
				C24.6,6.2,19.3,0.8,12.7,0.8z"/>
		</g>
	</g>
	<g>
		<path class="st2" d="M20,10.1c-0.1,0-0.2,0-0.2-0.1l-2.4-2.4c-0.1-0.1-0.1-0.4,0-0.5s0.4-0.1,0.5,0l2.4,2.4c0.1,0.1,0.1,0.4,0,0.5
			C20.1,10,20.1,10.1,20,10.1z"/>
	</g>
	<g>
		<path class="st2" d="M20.6,18.5c-0.2,0-0.3-0.2-0.3-0.3c0-1.8-1.2-2.9-2.2-3.5c-1.3-0.8-3.2-1.2-5.1-1.2c-3.8,0-7.6,1.6-7.6,4.7
			c0,0.2-0.2,0.3-0.4,0.3s-0.4-0.2-0.4-0.3c0-3.5,4.2-5.4,8.3-5.4c2.1,0,4,0.5,5.5,1.3c1.7,1,2.6,2.4,2.6,4.1
			C20.9,18.3,20.7,18.5,20.6,18.5z"/>
	</g>
	<g>
		<path class="st2" d="M17.6,10.1c-0.1,0-0.2,0-0.2-0.1c-0.1-0.1-0.1-0.4,0-0.5l2.4-2.4c0.1-0.1,0.4-0.1,0.5,0s0.1,0.4,0,0.5
			l-2.4,2.4C17.8,10,17.7,10.1,17.6,10.1z"/>
	</g>
	<g>
		<path class="st2" d="M7.5,10c-0.1,0-0.2,0-0.2-0.1L4.9,7.6c-0.1-0.1-0.1-0.4,0-0.5s0.4-0.1,0.5,0l2.4,2.4c0.1,0.1,0.1,0.4,0,0.5
			C7.7,10,7.6,10,7.5,10z"/>
	</g>
	<g>
		<path class="st2" d="M5.2,10C5.1,10,5,10,4.9,9.9c-0.1-0.1-0.1-0.4,0-0.5l2.4-2.4c0.1-0.1,0.4-0.1,0.5,0s0.1,0.4,0,0.5L5.4,9.9
			C5.3,10,5.3,10,5.2,10z"/>
	</g>
</g>
<g class="st0">
	<g class="st1">
		<path class="st2" d="M12.7,25.3c-6.9,0-12.6-5.6-12.6-12.6S5.8,0.1,12.7,0.1s12.6,5.6,12.6,12.6S19.6,25.3,12.7,25.3z M12.7,0.8
			C6.1,0.8,0.8,6.1,0.8,12.7s5.3,11.9,11.9,11.9s11.9-5.3,11.9-11.9S19.3,0.8,12.7,0.8z"/>
	</g>
	<g class="st1">
		<path class="st2" d="M12.7,22.2c-3.9,0-8.2-2.6-8.2-8.2c0-0.2,0.2-0.4,0.4-0.4h15.7c0.2,0,0.3,0.2,0.3,0.4
			C20.9,19.6,16.7,22.2,12.7,22.2z M5.2,14.3c0.2,4.9,4,7.1,7.5,7.1c3.5,0,7.3-2.2,7.5-7.1H5.2z"/>
	</g>
	<g class="st1">
		<g id="Frame_1_">
			<g>
				<g>
					<path class="st4" d="M23,7.8c0-0.6,0.3-0.8,0.8-0.8l0-1.6c0,0-2.5-0.8-4.9-0.8c-2.5,0-4.5,1.2-6.2,1.2c-1.6,0-3.7-1.2-6.2-1.2
						c-2.5,0-4.9,0.8-4.9,0.8l0,1.6c0.5,0,0.8,0.3,0.8,0.8c0,1.6,0.4,2.9,1.2,3.7c1.2,1.2,5.3,1.2,6.6,0c1.6-1.6,1.6-4.1,2.5-4.1
						c0.8,0,0.8,2.5,2.5,4.1c1.2,1.2,5.3,1.2,6.6,0C22.5,10.6,23,9.4,23,7.8z"/>
				</g>
			</g>
		</g>
	</g>
</g>
</svg>
